<svg data-v-423bf9ae="" xmlns="http://www.w3.org/2000/svg" viewBox="0 0 429 107" class="iconLeft"><g data-v-423bf9ae="" id="09c0e3fb-7afb-4159-b947-c32fa022b90e" fill="white" transform="matrix(2.974714911901203,0,0,2.974714911901203,102.67284693462858,21.188819339571577)"><path d="M0.85 2.98Q0.62 2.81 0.62 2.45L0.62 2.45Q0.62 2.38 0.64 2.21L0.64 2.21Q0.74 1.79 1.03 1.42Q1.32 1.05 1.69 0.83L1.69 0.83Q1.99 0.66 2.28 0.66L2.28 0.66Q2.59 0.66 2.76 0.87L2.76 0.87Q2.88 1.04 2.88 1.27L2.88 1.27Q2.88 1.48 2.76 1.81L2.76 1.81Q2.62 2.20 2.33 2.52Q2.04 2.84 1.68 3.01L1.68 3.01Q1.39 3.15 1.16 3.11L1.16 3.11Q0.95 3.08 0.85 2.98L0.85 2.98ZM2.03 10.96L2.04 11.06Q2.04 11.16 2.01 11.28Q1.97 11.41 1.96 11.47L1.96 11.47L1.93 11.55Q1.79 12.07 1.43 12.53Q1.06 12.99 0.52 12.99L0.52 12.99Q0.46 12.99 0.43 12.98L0.43 12.98Q0.21 12.95 0.07 12.81L0.07 12.81Q-0.14 12.56-0.14 12.03L-0.14 12.03Q-0.14 11.83-0.11 11.58L-0.11 11.58Q-0.13 11.54-0.12 11.49Q-0.11 11.44-0.11 11.42L-0.11 11.42Q-0.07 10.43 0.18 8.72L0.18 8.72L0.24 8.29Q0.38 7.34 0.42 6.86L0.42 6.86L0.48 6.23Q0.48 6.13 0.49 6.08L0.49 6.08Q0.52 5.88 0.50 5.82L0.50 5.82Q0.49 5.81 0.49 5.79Q0.49 5.77 0.48 5.75L0.48 5.75Q0.39 5.64 0.39 5.46L0.39 5.46Q0.39 5.24 0.43 5.01L0.43 5.01Q0.45 4.97 0.45 4.87L0.45 4.87Q0.55 4.23 0.99 3.77L0.99 3.77Q1.46 3.30 1.86 3.30L1.86 3.30Q2.02 3.30 2.16 3.37L2.16 3.37Q2.51 3.56 2.51 4.14L2.51 4.14Q2.48 4.54 2.48 4.73L2.48 4.73L2.46 5.10L2.42 5.87Q2.41 6.59 2.34 7.35L2.34 7.35Q2.32 7.63 2.17 9.20L2.17 9.20L2.13 9.63L2.10 9.91L2.02 10.68Q2.00 10.74 2.01 10.77Q2.02 10.81 2.02 10.85L2.02 10.85Q2.04 10.92 2.03 10.96L2.03 10.96ZM9.31 4.51Q9.34 4.55 9.37 4.66L9.37 4.66Q9.53 6.38 9.97 10.11L9.97 10.11L10.15 11.70Q10.19 12.01 9.81 12.25Q9.42 12.49 9.00 12.49L9.00 12.49Q8.75 12.49 8.58 12.38Q8.40 12.28 8.39 12.05L8.39 12.05Q8.20 10.11 7.97 8.04L7.97 8.04Q7.59 8.85 7.21 9.53L7.21 9.53Q7.15 9.65 7 9.76L7 9.76Q6.82 9.93 6.54 10.03Q6.27 10.14 6.02 10.14L6.02 10.14Q5.59 10.14 5.45 9.84L5.45 9.84Q5.19 9.28 4.94 8.64L4.94 8.64L4.87 9.06Q4.69 10.22 4.38 12.05L4.38 12.05Q4.34 12.35 3.91 12.56Q3.49 12.78 3.08 12.78L3.08 12.78Q2.86 12.78 2.73 12.70Q2.60 12.61 2.63 12.43L2.63 12.43Q3.37 7.53 3.79 5.21L3.79 5.21Q3.85 4.91 4.27 4.69Q4.69 4.47 5.07 4.48L5.07 4.48Q5.29 4.45 5.45 4.52Q5.61 4.58 5.64 4.73L5.64 4.73Q5.99 6.31 6.51 7.63L6.51 7.63Q7.11 6.27 7.66 4.83L7.66 4.83Q7.74 4.59 8.10 4.42Q8.46 4.26 8.81 4.26L8.81 4.26Q9.23 4.26 9.31 4.51L9.31 4.51ZM13.86 7.41L13.48 8.37L13.37 8.65L14.35 9.48L14.25 9.07Q14.15 8.68 13.86 7.41L13.86 7.41ZM15.08 4.28Q15.27 5.50 15.57 6.75Q15.88 8.01 16.31 9.63L16.31 9.63Q16.72 11.17 16.84 11.68L16.84 11.68Q16.86 11.72 16.86 11.80L16.86 11.80Q16.86 12.14 16.48 12.38Q16.10 12.63 15.69 12.63L15.69 12.63Q15.36 12.63 15.18 12.45L15.18 12.45Q14.77 12.01 14.32 11.62Q13.87 11.23 13.15 10.65L13.15 10.65L12.68 10.28Q12.10 11.54 11.77 12.14L11.77 12.14Q11.68 12.35 11.26 12.52Q10.85 12.70 10.50 12.70L10.50 12.70Q10.11 12.70 10.11 12.45L10.11 12.45Q10.11 12.38 10.15 12.28L10.15 12.28Q10.57 11.24 11.14 9.90L11.14 9.90L11.44 9.18Q11.09 8.83 11.09 8.83L11.09 8.83Q10.99 8.74 10.99 8.61L10.99 8.61Q10.99 8.37 11.30 8.16Q11.61 7.94 11.98 7.87L11.98 7.87Q12.66 6.26 13.24 4.59L13.24 4.59Q13.30 4.40 13.60 4.25Q13.90 4.10 14.24 4.06L14.24 4.06Q14.48 3.99 14.64 3.99L14.64 3.99Q15.04 3.99 15.08 4.28L15.08 4.28ZM23.84 7.70Q23.86 7.71 23.86 7.74L23.86 7.74Q23.95 8.62 23.95 9.65L23.95 9.65Q23.95 10.78 23.81 11.82L23.81 11.82Q23.77 12.10 23.38 12.31Q22.99 12.53 22.61 12.53L22.61 12.53Q22.39 12.53 22.26 12.44Q22.13 12.35 22.15 12.15L22.15 12.15Q22.29 10.86 22.29 9.87L22.29 9.87Q21.85 10.98 21.11 11.74Q20.37 12.50 19.39 12.50L19.39 12.50Q19.18 12.50 18.97 12.46L18.97 12.46Q18.06 12.31 17.67 11.63Q17.28 10.95 17.28 9.95L17.28 9.95Q17.28 8.97 17.60 7.83L17.60 7.83Q17.85 6.96 18.35 6.15Q18.84 5.35 19.56 4.83Q20.27 4.31 21.13 4.31L21.13 4.31Q21.85 4.31 22.19 4.59Q22.53 4.87 22.53 5.33L22.53 5.33Q22.53 5.91 22.11 6.60Q21.69 7.29 21.21 7.66L21.21 7.66Q21.07 7.76 20.83 7.82Q20.59 7.88 20.37 7.88L20.37 7.88Q20.12 7.88 19.96 7.81Q19.81 7.74 19.81 7.62L19.81 7.62Q19.81 7.43 20.09 7.20L20.09 7.20Q20.27 7.04 20.59 6.53Q20.90 6.02 20.90 5.73L20.90 5.73Q20.90 5.46 20.61 5.46L20.61 5.46Q20.19 5.46 19.61 6.72L19.61 6.72Q19.29 7.35 19.14 8.09L19.14 8.09Q18.94 8.99 18.94 9.74L18.94 9.74Q18.94 11.10 19.68 11.24L19.68 11.24Q19.98 11.28 20.27 10.80Q20.55 10.32 20.76 9.66L20.76 9.66Q20.58 9.76 20.22 9.93L20.22 9.93Q19.99 10.02 19.73 10.02L19.73 10.02Q19.45 10.02 19.31 9.88L19.31 9.88Q19.22 9.77 19.22 9.67L19.22 9.67Q19.22 9.55 19.30 9.43Q19.38 9.31 19.49 9.24L19.49 9.24Q21.27 8.02 22.88 7.29L22.88 7.29Q23.00 7.24 23.18 7.24L23.18 7.24Q23.46 7.24 23.67 7.37Q23.88 7.50 23.84 7.70L23.84 7.70ZM30.34 11.14Q30.55 11.21 30.55 11.40L30.55 11.40Q30.55 11.62 30.28 11.89L30.28 11.89Q29.99 12.18 29.53 12.18L29.53 12.18Q29.30 12.18 29.15 12.12L29.15 12.12Q28.41 11.89 27.80 11.89L27.80 11.89Q26.75 11.89 25.66 12.56L25.66 12.56Q25.48 12.68 25.22 12.76Q24.96 12.84 24.74 12.84L24.74 12.84Q24.53 12.84 24.40 12.76Q24.28 12.68 24.28 12.52L24.28 12.52Q24.28 12.42 24.30 12.35L24.30 12.35Q24.71 11.21 24.96 10.30Q25.20 9.39 25.28 8.46L25.28 8.46Q25.41 7.20 25.41 6.61L25.41 6.61Q25.41 5.05 24.81 4.23L24.81 4.23Q24.74 4.14 24.74 4.00L24.74 4.00Q24.74 3.72 25.13 3.48Q25.52 3.23 25.90 3.23L25.90 3.23Q26.15 3.23 26.26 3.35L26.26 3.35Q26.45 3.42 26.50 3.57L26.50 3.57Q26.85 4.49 27.47 5.13Q28.08 5.77 28.92 5.77L28.92 5.77Q29.08 5.77 29.39 5.71L29.39 5.71Q29.58 5.68 29.64 5.68L29.64 5.68Q29.88 5.68 30.00 5.79Q30.11 5.89 30.11 6.08L30.11 6.08Q30.11 6.27 29.95 6.47Q29.79 6.66 29.53 6.75L29.53 6.75Q28.95 6.94 28.38 6.94L28.38 6.94Q27.69 6.94 27.06 6.66L27.06 6.66Q27.03 7.45 26.99 7.84L26.99 7.84L26.89 8.72Q27.44 8.62 27.99 8.55L27.99 8.55L28.18 8.54Q28.74 8.54 28.74 8.92L28.74 8.92Q28.74 9.17 28.46 9.37Q28.18 9.56 27.89 9.62L27.89 9.62Q27.45 9.70 26.70 9.80L26.70 9.80Q26.54 10.49 26.36 11.09L26.36 11.09Q27.29 10.75 28.24 10.75L28.24 10.75Q29.29 10.75 30.34 11.14L30.34 11.14ZM35.14 1.48Q35.52 1.40 35.84 1.40L35.84 1.40Q37.06 1.40 37.66 2.44Q38.26 3.49 38.26 5.15L38.26 5.15Q38.26 6.89 37.65 8.73Q37.04 10.57 35.99 11.79Q34.93 13.01 33.64 13.01L33.64 13.01Q33.04 13.01 32.47 12.73L32.47 12.73Q31.77 12.38 31.42 11.54Q31.08 10.70 31.08 9.52L31.08 9.52Q31.08 7.92 31.65 6.13Q32.21 4.33 33.15 3.02Q34.09 1.72 35.14 1.48L35.14 1.48ZM34.89 3.75Q34.16 3.77 33.56 4.50Q32.97 5.24 32.63 6.33Q32.28 7.43 32.28 8.48L32.28 8.48Q32.28 9.55 32.66 10.21Q33.04 10.88 33.80 10.88L33.80 10.88Q34.10 10.88 34.41 10.78L34.41 10.78Q35.06 10.57 35.61 9.83Q36.16 9.09 36.48 8.09Q36.81 7.08 36.81 6.15L36.81 6.15Q36.81 5.05 36.34 4.39Q35.87 3.72 34.89 3.75L34.89 3.75ZM42.95 8.60Q43.16 8.06 43.16 7.57L43.16 7.57Q43.16 6.93 42.80 6.52L42.80 6.52Q42.25 5.88 40.96 5.91L40.96 5.91Q40.71 8.12 40.57 11.24L40.57 11.24Q41.37 10.82 42 10.13Q42.63 9.44 42.95 8.60L42.95 8.60ZM41.10 4.82Q41.26 4.80 41.58 4.80L41.58 4.80Q43.29 4.80 44.13 5.64L44.13 5.64Q44.76 6.26 44.76 7.22L44.76 7.22Q44.76 7.73 44.53 8.43L44.53 8.43Q44.07 9.74 42.99 10.79Q41.92 11.83 40.53 12.38L40.53 12.38Q40.47 13.80 40.45 14.88Q40.42 15.95 40.40 16.66L40.40 16.66Q40.39 18.37 40.32 20.09L40.32 20.09Q40.31 20.38 39.90 20.61Q39.49 20.83 39.07 20.83L39.07 20.83Q38.58 20.83 38.58 20.47L38.58 20.47L38.60 19.35Q38.61 18.80 38.65 16.72Q38.68 14.63 38.77 12.82L38.77 12.82Q38.39 12.87 38.02 12.87L38.02 12.87Q37.76 12.87 37.63 12.78Q37.49 12.70 37.49 12.56L37.49 12.56Q37.49 12.31 37.84 12.03Q38.18 11.75 38.53 11.75L38.53 11.75Q38.72 11.75 38.81 11.73L38.81 11.73Q38.96 8.72 39.28 5.95L39.28 5.95Q39.19 5.89 39.19 5.77L39.19 5.77Q39.19 5.60 39.37 5.38L39.37 5.38Q39.37 5.29 39.40 5.10L39.40 5.10Q39.44 4.80 39.84 4.59Q40.25 4.37 40.63 4.37L40.63 4.37Q40.87 4.37 41.00 4.47Q41.13 4.56 41.10 4.76L41.10 4.76L41.10 4.82ZM49.70 4.28Q49.99 4.26 50.16 4.35Q50.32 4.45 50.50 4.73L50.50 4.73Q50.61 4.91 50.61 5.04L50.61 5.04Q50.61 5.35 50.22 5.40L50.22 5.40L49.73 5.46Q49.04 5.56 49 5.56L49 5.56Q48.76 7.80 48.62 9.45Q48.48 11.10 48.44 12.71L48.44 12.71Q48.43 12.91 48.28 13.01Q48.13 13.10 47.89 13.10L47.89 13.10Q47.47 13.10 47.06 12.87Q46.65 12.64 46.66 12.35L46.66 12.35Q46.70 10.86 46.83 9.32Q46.96 7.77 47.17 5.73L47.17 5.73L46.28 5.84Q46.09 5.85 45.98 5.82Q45.88 5.78 45.78 5.66Q45.68 5.53 45.58 5.38L45.58 5.38Q45.47 5.22 45.47 5.07L45.47 5.07Q45.47 4.94 45.57 4.84Q45.67 4.75 45.86 4.72L45.86 4.72Q46.17 4.68 46.58 4.62L46.58 4.62L47.29 4.52L47.54 2.10Q47.59 1.71 48.12 1.71L48.12 1.71Q48.54 1.71 48.94 1.94Q49.34 2.17 49.31 2.46L49.31 2.46L49.13 4.34Q49.52 4.31 49.70 4.28L49.70 4.28ZM51.04 5.10Q51.06 4.82 51.45 4.60Q51.84 4.38 52.23 4.38L52.23 4.38Q52.46 4.38 52.60 4.47Q52.74 4.56 52.72 4.76L52.72 4.76L52.32 12.36Q52.30 12.66 51.91 12.87Q51.52 13.09 51.13 13.09L51.13 13.09Q50.61 13.09 50.62 12.68L50.62 12.68L51.04 5.10ZM51.02 3.25Q50.99 3.44 51.12 3.54Q51.25 3.64 51.48 3.64L51.48 3.64Q51.86 3.64 52.25 3.43Q52.64 3.22 52.68 2.93L52.68 2.93Q52.79 2.23 52.84 1.88L52.84 1.88Q52.89 1.53 52.40 1.53L52.40 1.53Q52.02 1.53 51.62 1.74Q51.21 1.95 51.18 2.21L51.18 2.21L51.02 3.25ZM59.71 4.51Q59.74 4.55 59.77 4.66L59.77 4.66Q59.93 6.38 60.37 10.11L60.37 10.11L60.55 11.70Q60.59 12.01 60.21 12.25Q59.82 12.49 59.40 12.49L59.40 12.49Q59.15 12.49 58.98 12.38Q58.80 12.28 58.79 12.05L58.79 12.05Q58.60 10.11 58.37 8.04L58.37 8.04Q57.99 8.85 57.61 9.53L57.61 9.53Q57.55 9.65 57.40 9.76L57.40 9.76Q57.22 9.93 56.95 10.03Q56.67 10.14 56.42 10.14L56.42 10.14Q55.99 10.14 55.85 9.84L55.85 9.84Q55.59 9.28 55.34 8.64L55.34 8.64L55.27 9.06Q55.09 10.22 54.78 12.05L54.78 12.05Q54.74 12.35 54.31 12.56Q53.89 12.78 53.48 12.78L53.48 12.78Q53.26 12.78 53.13 12.70Q53.00 12.61 53.03 12.43L53.03 12.43Q53.77 7.53 54.19 5.21L54.19 5.21Q54.25 4.91 54.67 4.69Q55.09 4.47 55.47 4.48L55.47 4.48Q55.69 4.45 55.85 4.52Q56.01 4.58 56.04 4.73L56.04 4.73Q56.39 6.31 56.91 7.63L56.91 7.63Q57.51 6.27 58.06 4.83L58.06 4.83Q58.14 4.59 58.50 4.42Q58.86 4.26 59.21 4.26L59.21 4.26Q59.63 4.26 59.71 4.51L59.71 4.51ZM61.63 5.10Q61.64 4.82 62.03 4.60Q62.43 4.38 62.82 4.38L62.82 4.38Q63.04 4.38 63.18 4.47Q63.32 4.56 63.31 4.76L63.31 4.76L62.90 12.36Q62.89 12.66 62.50 12.87Q62.10 13.09 61.71 13.09L61.71 13.09Q61.19 13.09 61.21 12.68L61.21 12.68L61.63 5.10ZM61.60 3.25Q61.57 3.44 61.71 3.54Q61.84 3.64 62.06 3.64L62.06 3.64Q62.44 3.64 62.83 3.43Q63.22 3.22 63.27 2.93L63.27 2.93Q63.38 2.23 63.42 1.88L63.42 1.88Q63.48 1.53 62.99 1.53L62.99 1.53Q62.61 1.53 62.20 1.74Q61.80 1.95 61.77 2.21L61.77 2.21L61.60 3.25ZM70.24 4.58Q70.42 4.58 70.60 4.70Q70.77 4.82 70.77 4.97L70.77 4.97Q70.77 5.08 70.71 5.15L70.71 5.15Q70.32 5.77 69.85 6.31Q69.37 6.86 68.54 7.74L68.54 7.74L68.70 7.73Q69.44 7.73 69.44 8.11L69.44 8.11Q69.44 8.39 69.15 8.55Q68.85 8.72 68.53 8.76L68.53 8.76Q68.21 8.81 67.56 8.86L67.56 8.86L67.19 9.31Q66.40 10.21 66.04 10.67L66.04 10.67L65.60 11.20Q66.49 11.06 68.25 10.70L68.25 10.70L69.13 10.51L69.36 10.49Q69.58 10.49 69.69 10.59Q69.80 10.70 69.80 10.85L69.80 10.85Q69.80 11.06 69.64 11.26Q69.47 11.45 69.19 11.52L69.19 11.52Q66.74 12.17 64.27 12.46L64.27 12.46Q64.01 12.49 63.76 12.40Q63.52 12.31 63.52 12.04L63.52 12.04Q63.52 11.82 63.68 11.57Q63.84 11.33 64.02 11.12Q64.20 10.91 64.27 10.82L64.27 10.82Q64.83 10.09 65.79 9.02L65.79 9.02Q65.69 9.02 65.60 9.03Q65.51 9.04 65.41 9.04L65.41 9.04Q65.10 9.04 64.88 8.97Q64.67 8.90 64.67 8.65L64.67 8.65Q64.67 8.39 64.97 8.21Q65.28 8.04 65.58 8.01L65.58 8.01Q66.36 7.92 66.75 7.90L66.75 7.90L67.66 6.85L68.15 6.29L68.64 5.73L67.56 5.87Q66.02 6.10 65.14 6.09L65.14 6.09Q64.65 6.08 64.65 5.84L64.65 5.84Q64.65 5.67 64.87 5.47Q65.09 5.28 65.32 5.21L65.32 5.21Q65.77 5.05 66.25 4.98Q66.72 4.90 67.45 4.83L67.45 4.83Q67.69 4.82 68.14 4.76L68.14 4.76Q68.66 4.69 69.22 4.63Q69.78 4.58 70.24 4.58L70.24 4.58ZM76.87 11.14Q77.08 11.21 77.08 11.40L77.08 11.40Q77.08 11.62 76.82 11.89L76.82 11.89Q76.52 12.18 76.06 12.18L76.06 12.18Q75.84 12.18 75.68 12.12L75.68 12.12Q74.94 11.89 74.34 11.89L74.34 11.89Q73.29 11.89 72.20 12.56L72.20 12.56Q72.02 12.68 71.76 12.76Q71.50 12.84 71.27 12.84L71.27 12.84Q71.06 12.84 70.94 12.76Q70.81 12.68 70.81 12.52L70.81 12.52Q70.81 12.42 70.84 12.35L70.84 12.35Q71.25 11.21 71.49 10.30Q71.74 9.39 71.82 8.46L71.82 8.46Q71.95 7.20 71.95 6.61L71.95 6.61Q71.95 5.05 71.34 4.23L71.34 4.23Q71.27 4.14 71.27 4.00L71.27 4.00Q71.27 3.72 71.67 3.48Q72.06 3.23 72.44 3.23L72.44 3.23Q72.69 3.23 72.80 3.35L72.80 3.35Q72.98 3.42 73.04 3.57L73.04 3.57Q73.39 4.49 74.00 5.13Q74.62 5.77 75.46 5.77L75.46 5.77Q75.61 5.77 75.92 5.71L75.92 5.71Q76.12 5.68 76.17 5.68L76.17 5.68Q76.41 5.68 76.53 5.79Q76.65 5.89 76.65 6.08L76.65 6.08Q76.65 6.27 76.49 6.47Q76.33 6.66 76.06 6.75L76.06 6.75Q75.49 6.94 74.91 6.94L74.91 6.94Q74.23 6.94 73.60 6.66L73.60 6.66Q73.57 7.45 73.53 7.84L73.53 7.84L73.43 8.72Q73.98 8.62 74.52 8.55L74.52 8.55L74.72 8.54Q75.28 8.54 75.28 8.92L75.28 8.92Q75.28 9.17 75.00 9.37Q74.72 9.56 74.42 9.62L74.42 9.62Q73.99 9.70 73.23 9.80L73.23 9.80Q73.08 10.49 72.90 11.09L72.90 11.09Q73.82 10.75 74.77 10.75L74.77 10.75Q75.82 10.75 76.87 11.14L76.87 11.14ZM79.88 7.98L80.29 7.64Q80.84 7.21 81.18 6.87Q81.52 6.54 81.70 6.20L81.70 6.20Q80.95 6.01 79.46 5.56L79.46 5.56L79.39 8.40Q79.81 8.05 79.88 7.98L79.88 7.98ZM82.54 9.60Q82.66 9.38 83.02 9.22Q83.38 9.06 83.72 9.06L83.72 9.06Q84.18 9.06 84.18 9.35L84.18 9.35Q84.18 9.44 84.14 9.55L84.14 9.55Q83.57 10.89 83.27 12.15L83.27 12.15Q83.20 12.43 82.87 12.67L82.87 12.67Q82.73 12.85 82.44 12.98Q82.15 13.10 81.87 13.10L81.87 13.10Q81.63 13.10 81.49 13.01Q81.34 12.91 81.33 12.70L81.33 12.70Q81.27 11.79 80.73 11.03Q80.19 10.28 79.35 10.05L79.35 10.05L79.28 12.08Q79.27 12.35 78.84 12.57Q78.41 12.80 78.02 12.80L78.02 12.80Q77.81 12.80 77.69 12.72Q77.56 12.64 77.56 12.47L77.56 12.47L77.60 10.54Q77.42 10.42 77.42 10.25L77.42 10.25Q77.42 10.05 77.63 9.87L77.63 9.87Q77.70 7.32 77.80 4.79L77.80 4.79Q77.81 4.49 78.20 4.28Q78.58 4.06 78.97 4.06L78.97 4.06Q79.27 4.06 79.39 4.20L79.39 4.20Q80.92 4.62 82.56 5.12L82.56 5.12Q82.81 5.07 82.91 5.07L82.91 5.07Q83.15 5.07 83.28 5.17Q83.41 5.28 83.41 5.49L83.41 5.49Q83.41 6.06 83.03 6.54Q82.66 7.03 81.98 7.62L81.98 7.62L81.70 7.87Q81.03 8.53 80.40 9.03L80.40 9.03Q81.55 9.35 82.25 10.30L82.25 10.30Q82.31 10.16 82.54 9.60L82.54 9.60ZM91.90 6.29Q93.03 5.22 93.93 4.51L93.93 4.51Q93.20 4.47 91.74 4.33L91.74 4.33Q91.85 5.39 91.90 6.29L91.90 6.29ZM96.75 2.70Q96.94 2.83 96.94 3.04L96.94 3.04Q96.94 3.54 96.09 4.35Q95.24 5.15 93.69 6.38L93.69 6.38Q92.88 7.03 92.46 7.38Q92.05 7.73 91.95 7.91L91.95 7.91Q91.88 8.04 91.85 8.20Q91.83 8.37 91.83 8.56Q91.83 8.75 91.81 8.88L91.81 8.88Q91.71 9.56 91.59 10.08L91.59 10.08Q91.46 10.60 91.30 10.99Q91.14 11.38 90.86 11.69L90.86 11.69Q90.68 11.90 90.44 12.08Q90.20 12.25 89.99 12.25L89.99 12.25Q89.52 12.25 89.52 11.48L89.52 11.48Q89.52 11.23 89.56 10.90Q89.61 10.57 89.63 10.47L89.63 10.47L89.70 10.02Q89.39 10.28 89.14 10.28L89.14 10.28Q88.97 10.28 88.89 10.16Q88.80 10.05 88.80 9.86L88.80 9.86Q88.80 9.58 88.96 9.28L88.96 9.28Q89.08 9.03 89.40 8.68L89.40 8.68Q89.66 8.39 89.76 8.23Q89.87 8.06 89.91 7.87L89.91 7.87Q90.02 7.15 90.02 6.50L90.02 6.50Q90.02 5.96 89.96 5.56L89.96 5.56Q89.92 5.22 89.84 4.90L89.84 4.90Q89.82 4.83 89.75 4.47Q89.68 4.12 89.68 3.81L89.68 3.81Q89.68 2.32 91.36 2.32L91.36 2.32Q91.55 2.32 91.91 2.35L91.91 2.35Q92.81 2.44 94.05 2.46L94.05 2.46L94.49 2.48L95.51 2.46Q96.39 2.46 96.75 2.70L96.75 2.70ZM98.94 7.98L99.34 7.64Q99.89 7.21 100.23 6.87Q100.58 6.54 100.76 6.20L100.76 6.20Q100.00 6.01 98.52 5.56L98.52 5.56L98.45 8.40Q98.87 8.05 98.94 7.98L98.94 7.98ZM101.60 9.60Q101.71 9.38 102.07 9.22Q102.44 9.06 102.77 9.06L102.77 9.06Q103.24 9.06 103.24 9.35L103.24 9.35Q103.24 9.44 103.19 9.55L103.19 9.55Q102.62 10.89 102.33 12.15L102.33 12.15Q102.26 12.43 101.92 12.67L101.92 12.67Q101.78 12.85 101.49 12.98Q101.21 13.10 100.93 13.10L100.93 13.10Q100.69 13.10 100.54 13.01Q100.39 12.91 100.38 12.70L100.38 12.70Q100.32 11.79 99.79 11.03Q99.25 10.28 98.41 10.05L98.41 10.05L98.34 12.08Q98.32 12.35 97.90 12.57Q97.47 12.80 97.08 12.80L97.08 12.80Q96.87 12.80 96.74 12.72Q96.61 12.64 96.61 12.47L96.61 12.47L96.66 10.54Q96.47 10.42 96.47 10.25L96.47 10.25Q96.47 10.05 96.68 9.87L96.68 9.87Q96.75 7.32 96.85 4.79L96.85 4.79Q96.87 4.49 97.25 4.28Q97.64 4.06 98.03 4.06L98.03 4.06Q98.32 4.06 98.45 4.20L98.45 4.20Q99.97 4.62 101.61 5.12L101.61 5.12Q101.86 5.07 101.96 5.07L101.96 5.07Q102.20 5.07 102.33 5.17Q102.47 5.28 102.47 5.49L102.47 5.49Q102.47 6.06 102.09 6.54Q101.71 7.03 101.04 7.62L101.04 7.62L100.76 7.87Q100.09 8.53 99.46 9.03L99.46 9.03Q100.60 9.35 101.30 10.30L101.30 10.30Q101.36 10.16 101.60 9.60L101.60 9.60ZM107.46 9.63Q107.79 8.88 107.79 8.08L107.79 8.08Q107.79 7.45 107.57 6.92Q107.35 6.40 106.89 6.06L106.89 6.06Q106.58 5.84 106.30 5.84L106.30 5.84Q106.19 5.84 106.02 5.89L106.02 5.89Q106.15 5.95 106.15 6.09L106.15 6.09Q106.15 6.17 106.09 6.29L106.09 6.29Q105.77 6.90 105.59 7.62Q105.41 8.34 105.41 9.07L105.41 9.07Q105.41 9.91 105.66 10.67L105.66 10.67Q105.83 11.09 106.01 11.33L106.01 11.33Q106.09 11.42 106.18 11.47L106.18 11.47Q106.58 11.19 106.91 10.68Q107.24 10.18 107.46 9.63L107.46 9.63ZM107.27 4.72Q107.95 4.86 108.44 5.32Q108.93 5.78 109.19 6.43Q109.44 7.08 109.44 7.78L109.44 7.78Q109.44 8.61 109.12 9.48Q108.79 10.35 108.23 11.07Q107.67 11.80 106.99 12.22L106.99 12.22Q106.34 12.61 105.73 12.61L105.73 12.61Q105.11 12.61 104.65 12.24Q104.19 11.86 103.98 11.14L103.98 11.14Q103.74 10.42 103.74 9.51L103.74 9.51Q103.74 8.96 103.82 8.44L103.82 8.44Q103.73 8.47 103.53 8.47L103.53 8.47Q103.05 8.47 103.05 8.15L103.05 8.15Q103.05 8.04 103.08 7.97L103.08 7.97Q103.56 6.64 104.52 5.65Q105.48 4.66 106.72 4.66L106.72 4.66Q106.90 4.66 107.27 4.72L107.27 4.72Z"></path></g><g data-v-423bf9ae="" id="02c623ff-3ab2-46c8-adf0-1cb4e1fddb88" transform="matrix(1.0868111504448785,0,0,1.0868111504448785,-13.255261890115804,-0.23894260335429607)" stroke="none" fill="white"><g clip-rule="evenodd"><path d="m12.983 10.59 17.018 88.223-5.872-59.049 29.021-1.892-.054-9.883L64.549 1 53.622 18.977z"></path><path d="m59.389 54.548 5.16-53.541-8.74 39.716-19.612 1.045 1.57 20.462-7.766 36.583 12.057-39.899z"></path><path d="m62.8 67.182.549-10.453-15.979 3.755-.032 11.797-17.337 26.532 21.68-27.616zM65.711 62.394l14.841-4.731 1.509-12.532-15.899 2.095zM72.07 44.502l10.988-1.417 1.581-10.278-8.079-.373L64.549 1l8.43 30.967z"></path><path d="m87.413 31.294 1.256-9.506-9.544-2.694L64.549 1l14.483 22.437-.422 7z"></path></g></g></svg>